<?xml version="1.0" standalone="no"?>
<!DOCTYPE svg PUBLIC "-//W3C//DTD SVG 20010904//EN"
 "http://www.w3.org/TR/2001/REC-SVG-20010904/DTD/svg10.dtd">
<svg version="1.0" xmlns="http://www.w3.org/2000/svg"
 width="469.000000pt" height="192.000000pt" viewBox="0 0 469.000000 192.000000"
 preserveAspectRatio="xMidYMid meet">

<g transform="translate(0.000000,192.000000) scale(0.100000,-0.100000)"
fill="#000000" stroke="none">
<path d="M1003 1856 c-24 -8 -59 -28 -78 -45 -20 -17 -47 -31 -61 -31 -61 0
-113 -75 -100 -145 4 -18 25 -54 47 -79 32 -36 39 -50 30 -60 -19 -23 -6 -251
18 -319 l20 -58 -27 -24 c-38 -34 -56 -31 -71 11 -16 43 -75 88 -147 111 -36
11 -54 22 -54 33 0 42 -59 54 -84 18 -12 -17 -37 -27 -99 -40 -98 -21 -123
-38 -160 -106 -21 -38 -34 -52 -50 -52 -32 -1 -103 -35 -115 -56 -29 -52 51
-103 211 -134 l57 -11 -18 -27 c-28 -40 -31 -54 -16 -90 12 -29 11 -39 -2 -70
-19 -45 -20 -101 -4 -133 24 -46 103 -119 130 -119 31 0 113 47 164 94 21 20
39 36 40 36 2 0 -13 -206 -19 -260 -8 -69 8 -49 26 34 11 49 14 55 21 36 13
-35 19 -18 8 21 -12 42 -12 73 0 44 8 -19 9 -19 9 3 1 13 -5 22 -14 22 -8 0
-15 6 -15 14 0 33 31 159 46 189 14 27 15 30 2 19 -13 -11 -16 -1 -21 80 -3
51 -4 94 -3 94 0 1 27 4 58 6 l57 5 -25 -49 c-20 -40 -22 -48 -8 -48 13 0 15
-10 10 -67 l-5 -68 11 63 c5 35 15 65 21 67 7 2 29 6 50 10 26 4 49 18 74 45
l37 39 27 -38 c19 -25 46 -44 86 -61 87 -35 90 -55 12 -80 l-41 -14 7 -50 c3
-27 13 -65 21 -84 8 -19 14 -43 14 -53 0 -34 56 -45 113 -24 11 5 15 -10 20
-77 6 -71 4 -88 -13 -121 -26 -50 -25 -55 5 -27 l24 23 11 -29 c6 -16 14 -42
18 -59 7 -30 7 -30 12 10 5 39 6 39 63 53 45 11 61 20 70 39 7 16 35 36 81 57
88 41 129 74 155 129 26 54 26 92 1 157 -11 28 -20 65 -20 84 0 24 -8 40 -33
62 -24 21 -44 57 -72 129 -44 116 -56 132 -102 141 -18 3 -59 14 -91 24 -52
16 -58 21 -68 56 -6 22 -19 42 -32 47 -32 15 -28 44 8 52 72 16 119 107 70
137 -32 20 -23 26 20 15 52 -14 88 -1 118 43 19 28 23 44 19 78 -3 24 -12 51
-20 60 -13 14 -14 25 -5 57 22 86 -39 165 -127 165 -38 0 -45 4 -63 33 -36 62
-151 92 -239 63z m160 -20 c44 -19 75 -55 86 -101 5 -22 9 -30 10 -18 1 29 49
40 89 19 75 -39 96 -124 45 -173 -16 -15 -23 -23 -17 -20 7 4 23 -3 38 -14 38
-30 36 -87 -4 -131 l-30 -33 15 30 c21 42 19 55 -9 55 -27 0 -55 38 -76 103
-9 30 -15 36 -25 27 -19 -16 -35 -4 -35 26 0 21 -5 24 -35 24 -70 0 -123 36
-142 95 l-10 30 -24 -50 c-17 -36 -31 -51 -47 -53 -22 -3 -23 -2 -12 20 l12
23 -21 -22 c-33 -35 -68 -39 -102 -14 -16 12 -29 17 -29 12 0 -5 5 -13 10 -16
6 -3 10 -11 10 -17 0 -6 -11 -3 -25 6 -24 16 -25 16 -25 -9 0 -15 5 -35 11
-47 19 -35 2 -31 -20 5 -32 53 -28 102 13 143 34 34 86 47 86 22 0 -7 9 2 20
20 38 62 163 92 243 58z m-56 -211 c63 -19 137 -68 177 -118 l30 -37 -18 -37
c-14 -29 -20 -34 -27 -22 -5 8 -9 11 -9 6 0 -4 -25 13 -55 38 -71 57 -139 78
-245 73 l-81 -3 7 30 c12 55 23 73 46 78 51 10 127 6 175 -8z m22 -140 l63
-29 -6 -48 c-4 -27 -4 -65 0 -84 l6 -35 27 25 c30 28 50 33 69 14 35 -35 -12
-98 -73 -98 l-33 0 -7 -69 c-6 -56 -12 -74 -32 -93 l-25 -23 6 25 c5 18 2 16
-13 -10 -22 -40 -111 -94 -118 -72 -4 9 -9 10 -17 3 -9 -8 -17 -1 -29 25 -10
19 -13 32 -7 29 6 -4 24 -10 40 -15 27 -8 34 -4 86 48 31 31 63 70 71 86 l15
29 -28 -22 c-98 -75 -108 -81 -144 -81 -30 0 -43 7 -64 32 -51 62 -76 209 -47
281 9 22 17 27 45 27 19 0 37 4 40 9 8 13 -57 21 -71 9 -15 -12 -17 2 -7 39
12 43 155 42 253 -2z m-589 -230 c0 -8 -7 -15 -15 -15 -16 0 -20 12 -8 23 11
12 23 8 23 -8z m95 -66 c83 -31 115 -65 115 -122 l0 -45 -132 -10 -133 -10
128 2 c81 0 126 -3 124 -9 -2 -5 -28 -25 -57 -42 -50 -31 -60 -33 -145 -33
-102 0 -254 24 -298 46 -25 14 -28 20 -23 47 3 17 8 33 11 35 2 3 31 -3 63
-12 32 -9 87 -18 122 -21 l65 -4 -55 9 c-66 12 -180 49 -180 58 1 22 50 89 77
104 72 43 215 46 318 7z m-434 -161 c-5 -14 -16 -22 -27 -21 -15 1 -14 -3 9
-22 56 -49 207 -78 412 -79 93 0 153 4 179 13 36 13 38 15 33 47 -7 39 0 41
49 18 49 -23 60 -48 32 -68 -33 -23 -44 -20 -17 4 l24 21 -30 -15 c-17 -8 -49
-18 -70 -22 -36 -7 -38 -8 -15 -14 49 -13 -90 -23 -239 -17 -149 6 -333 37
-339 57 -4 11 -74 50 -89 50 -4 0 6 -9 22 -20 17 -11 25 -20 18 -20 -23 0 -67
46 -60 64 8 19 61 45 94 46 19 0 21 -3 14 -22z m620 -5 c13 -15 12 -15 -8 -4
-24 12 -29 21 -14 21 5 0 15 -7 22 -17z m519 -4 c41 -11 77 -22 79 -25 2 -2
-4 -14 -15 -26 -17 -21 -16 -21 9 1 15 14 29 23 31 20 9 -9 85 -213 81 -218
-3 -2 10 -14 28 -26 29 -20 34 -31 46 -100 9 -49 17 -72 22 -63 5 8 9 -10 9
-44 0 -53 -3 -62 -37 -100 -36 -39 -120 -88 -153 -88 -13 0 -18 22 -28 105 -6
58 -16 114 -22 125 -8 16 -8 22 4 26 24 9 119 9 141 0 20 -9 20 -9 0 7 -17 13
-18 17 -5 33 13 16 13 17 -1 12 -70 -27 -97 -30 -125 -17 -16 8 -39 32 -52 54
-19 33 -22 51 -19 103 3 56 1 61 -10 45 -8 -10 -16 -28 -19 -40 -4 -13 -11
-20 -20 -16 -11 4 -14 -6 -14 -43 0 -27 -4 -55 -8 -62 -11 -17 -52 66 -52 107
0 36 -18 41 -45 11 -19 -21 -19 -20 -47 41 -16 34 -26 70 -23 79 3 9 34 33 69
53 35 21 70 44 76 52 16 19 11 19 100 -6z m-866 -244 c34 -18 35 -18 87 3 28
12 54 20 57 18 2 -3 1 -23 -3 -45 -5 -29 -12 -41 -23 -41 -10 -1 -28 -7 -42
-15 -28 -16 -19 -20 11 -5 16 9 19 7 19 -10 0 -36 -26 -84 -64 -117 -46 -41
-47 -54 -1 -19 19 15 35 23 35 19 1 -18 21 26 36 77 9 30 21 58 27 62 15 9 22
115 8 132 -9 11 -8 15 5 20 29 11 34 6 34 -36 -1 -109 -50 -220 -130 -292 -44
-39 -71 -49 -121 -44 -46 4 -99 73 -98 126 1 69 8 76 75 74 l59 -2 -40 15
c-70 25 -101 79 -73 125 12 19 13 19 38 -3 l25 -22 -19 22 c-10 12 -16 29 -12
38 4 12 13 7 40 -23 19 -21 51 -47 70 -57z m85 30 c7 -8 -10 -23 -34 -29 -28
-7 -79 20 -69 36 6 9 92 2 103 -7z m41 5 c-20 -13 -33 -13 -25 0 3 6 14 10 23
10 15 0 15 -2 2 -10z m597 -32 c0 -19 16 -67 38 -112 21 -44 38 -95 39 -115 1
-31 -4 -38 -39 -58 -26 -15 -57 -23 -87 -23 -41 0 -48 3 -48 20 0 13 7 20 19
20 11 0 23 5 26 11 5 7 -4 9 -25 7 -45 -4 -50 18 -8 37 l33 15 -42 -6 c-55 -7
-60 16 -8 35 19 7 35 16 35 21 0 6 -11 5 -27 -1 -31 -11 -53 -6 -53 14 0 13
82 46 119 48 10 0 11 2 4 6 -19 7 -16 73 4 95 21 24 21 23 20 -14z m128 -128
c16 -17 16 -20 2 -20 -28 0 -46 11 -40 26 7 19 17 18 38 -6z m32 -45 c32 -22
47 -102 39 -209 -8 -125 -11 -132 -55 -143 l-36 -10 -1 131 c0 72 -6 151 -12
175 -6 24 -8 50 -5 57 7 18 43 18 70 -1z m-105 -265 c3 -58 2 -91 -2 -75 -8
31 -13 192 -6 184 2 -2 5 -51 8 -109z"/>
<path d="M956 1804 c-23 -23 -20 -30 4 -9 11 10 20 20 20 22 0 7 -9 2 -24 -13z"/>
<path d="M1401 1638 c0 -14 -4 -35 -7 -45 -5 -17 -5 -17 6 0 6 10 9 30 7 45
l-4 27 -2 -27z"/>
<path d="M1030 1440 c0 -5 18 -10 41 -10 22 0 49 -5 60 -10 21 -12 26 -1 7 18
-14 14 -108 16 -108 2z"/>
<path d="M970 1418 c0 -10 -11 -12 -39 -10 -21 2 -42 -1 -45 -7 -5 -7 -1 -9 8
-5 11 4 16 0 16 -10 0 -19 21 -21 38 -4 18 18 16 -23 -3 -48 -19 -25 -18 -31
1 -38 10 -4 14 -2 11 6 -2 7 0 22 6 33 16 31 26 85 16 91 -5 3 -9 -1 -9 -8z"/>
<path d="M1052 1398 c-17 -17 -15 -33 3 -18 12 10 15 10 15 -4 0 -10 8 -16 21
-16 15 0 19 4 15 16 -5 12 -2 15 11 10 12 -5 15 -4 8 3 -17 17 -59 23 -73 9z"/>
<path d="M1231 1316 c-12 -14 -11 -66 1 -66 4 0 8 10 8 23 1 21 1 21 15 4 13
-18 14 -18 25 3 20 37 -22 68 -49 36z m39 -16 c0 -5 -7 -7 -15 -4 -8 4 -15 8
-15 10 0 2 7 4 15 4 8 0 15 -4 15 -10z"/>
<path d="M935 1227 c0 -42 16 -53 65 -42 26 6 80 55 80 73 0 4 -33 7 -73 7
l-73 0 1 -38z m82 12 c-12 -7 -27 -7 -45 0 -25 9 -24 9 18 10 36 0 41 -2 27
-10z"/>
<path d="M891 1224 c0 -11 3 -14 6 -6 3 7 2 16 -1 19 -3 4 -6 -2 -5 -13z"/>
<path d="M945 1160 c3 -5 16 -10 28 -9 21 0 21 1 2 9 -28 12 -37 12 -30 0z"/>
<path d="M364 1171 c-37 -23 -90 -88 -79 -99 4 -4 12 1 19 12 25 41 51 69 80
87 17 10 27 19 21 19 -5 0 -24 -9 -41 -19z"/>
<path d="M254 1005 c-4 -14 -3 -29 0 -33 9 -8 26 18 26 41 0 26 -19 20 -26 -8z"/>
<path d="M1310 1001 c24 -14 66 -25 55 -13 -5 5 -23 12 -40 16 -20 4 -25 3
-15 -3z"/>
<path d="M580 770 c-8 -5 -10 -10 -5 -10 6 0 17 5 25 10 8 5 11 10 5 10 -5 0
-17 -5 -25 -10z"/>
<path d="M1241 600 c0 -8 4 -22 9 -30 12 -18 12 -2 0 25 -6 13 -9 15 -9 5z"/>
<path d="M1340 270 c-8 -5 -10 -10 -5 -10 6 0 17 5 25 10 8 5 11 10 5 10 -5 0
-17 -5 -25 -10z"/>
<path d="M813 734 c-9 -23 13 -40 32 -24 12 10 13 16 4 26 -15 18 -28 18 -36
-2z"/>
<path d="M2080 717 c0 -2 -16 -82 -35 -177 -19 -95 -35 -177 -35 -182 0 -19
40 -7 45 15 8 33 65 331 65 340 0 4 -9 7 -20 7 -11 0 -20 -1 -20 -3z"/>
<path d="M4037 693 c-4 -3 -7 -15 -7 -25 0 -14 6 -19 23 -16 29 4 38 48 9 48
-10 0 -22 -3 -25 -7z"/>
<path d="M1826 673 c-2 -10 -17 -79 -31 -153 -14 -74 -29 -143 -31 -152 -4
-14 1 -18 19 -18 23 0 26 6 38 73 l14 72 65 5 c51 4 66 9 68 23 3 15 -5 17
-58 17 l-62 0 7 48 c4 26 9 50 12 55 2 4 33 7 68 7 59 0 75 8 75 36 0 2 -40 4
-89 4 -77 0 -90 -3 -95 -17z"/>
<path d="M3296 673 c-2 -10 -17 -79 -31 -153 -14 -74 -29 -143 -31 -152 -4
-14 1 -18 19 -18 23 0 26 6 38 73 l14 72 65 5 c51 4 66 9 68 23 3 15 -5 17
-58 17 l-62 0 7 48 c4 26 9 50 12 55 2 4 33 7 68 7 59 0 75 8 75 36 0 2 -40 4
-89 4 -77 0 -90 -3 -95 -17z"/>
<path d="M745 565 c-4 -37 -5 -69 -2 -71 2 -3 8 25 12 61 4 37 5 69 2 71 -2 3
-8 -25 -12 -61z"/>
<path d="M2214 590 c-47 -19 -92 -122 -79 -181 13 -58 89 -76 137 -32 17 15
18 15 18 -6 0 -16 5 -21 17 -19 13 2 22 29 40 113 27 136 27 135 3 135 -11 0
-20 -7 -20 -16 0 -14 -2 -14 -22 0 -24 17 -61 20 -94 6z m88 -47 c14 -16 14
-24 2 -65 -23 -77 -105 -121 -120 -63 -23 91 66 187 118 128z"/>
<path d="M2424 573 c3 -16 10 -57 16 -93 6 -36 13 -80 16 -97 4 -27 10 -33 29
-33 28 0 69 54 115 152 35 74 38 98 11 98 -14 0 -24 -13 -35 -47 -9 -27 -31
-73 -48 -103 l-32 -55 -15 103 c-13 98 -15 102 -38 102 -21 0 -24 -4 -19 -27z"/>
<path d="M2734 586 c-84 -37 -111 -199 -37 -227 84 -32 170 25 188 124 17 92
-58 143 -151 103z m94 -38 c20 -20 14 -82 -11 -119 -25 -37 -75 -51 -103 -28
-30 25 -8 124 33 148 24 14 66 14 81 -1z"/>
<path d="M2975 588 c-5 -17 -45 -218 -45 -229 0 -20 40 -8 44 14 29 139 53
183 104 189 35 4 36 32 2 36 -15 2 -34 -6 -48 -18 -22 -21 -22 -21 -22 0 0 22
-28 28 -35 8z"/>
<path d="M3525 588 c-9 -25 -35 -160 -35 -182 0 -53 74 -74 124 -35 l26 20 0
-21 c0 -15 5 -20 17 -18 13 2 22 29 40 113 27 136 27 135 4 135 -16 0 -22 -14
-36 -77 -19 -86 -54 -133 -99 -133 -23 0 -26 4 -26 38 0 33 5 62 25 150 4 17
1 22 -15 22 -11 0 -23 -6 -25 -12z"/>
<path d="M3825 588 c-59 -34 -58 -81 3 -121 32 -22 42 -35 40 -51 -3 -19 -9
-21 -63 -21 -46 0 -60 -3 -60 -15 0 -21 59 -35 102 -24 20 5 45 21 56 36 28
38 17 71 -35 100 -51 28 -56 42 -25 63 19 12 30 13 52 5 38 -14 59 4 31 26
-24 17 -73 18 -101 2z"/>
<path d="M4015 588 c-5 -17 -45 -218 -45 -229 0 -17 39 -9 44 9 2 9 12 58 21
107 9 50 18 98 21 108 4 12 0 17 -16 17 -11 0 -22 -6 -25 -12z"/>
<path d="M4174 586 c-84 -37 -111 -199 -37 -227 84 -32 170 25 188 124 17 92
-58 143 -151 103z m94 -38 c20 -20 14 -82 -11 -119 -25 -37 -75 -51 -103 -28
-30 25 -8 124 33 148 24 14 66 14 81 -1z"/>
<path d="M4415 588 c-5 -17 -45 -218 -45 -229 0 -5 9 -9 19 -9 21 0 24 6 41
94 14 69 52 116 94 116 23 0 26 -4 26 -37 0 -34 -5 -63 -25 -151 -5 -20 -2
-23 17 -20 20 3 25 13 40 78 22 103 22 133 -2 155 -23 21 -82 15 -111 -11 -18
-16 -19 -16 -19 4 0 24 -28 31 -35 10z"/>
<path d="M777 523 c-16 -15 -5 -33 19 -33 20 0 25 4 20 16 -3 9 -6 18 -6 20 0
7 -26 5 -33 -3z m23 -13 c0 -5 -5 -10 -11 -10 -5 0 -7 5 -4 10 3 6 8 10 11 10
2 0 4 -4 4 -10z"/>
<path d="M727 428 c-11 -93 -20 -233 -15 -228 7 6 30 271 25 276 -2 3 -7 -19
-10 -48z"/>
<path d="M757 266 c-8 -20 20 -43 35 -28 14 14 3 42 -16 42 -7 0 -16 -6 -19
-14z m28 -6 c3 -5 1 -10 -4 -10 -6 0 -11 5 -11 10 0 6 2 10 4 10 3 0 8 -4 11
-10z"/>
</g>
</svg>
